<?xml version="1.0" standalone="no"?>
<!DOCTYPE svg PUBLIC "-//W3C//DTD SVG 20010904//EN"
 "http://www.w3.org/TR/2001/REC-SVG-20010904/DTD/svg10.dtd">
<svg version="1.0" xmlns="http://www.w3.org/2000/svg"
 width="700.000000pt" height="700.000000pt" viewBox="0 0 700.000000 700.000000"
 preserveAspectRatio="xMidYMid meet">
<metadata>
Created by potrace 1.11, written by Peter Selinger 2001-2013
</metadata>
<g transform="translate(0.000000,700.000000) scale(0.100000,-0.100000)"
fill="#000000" stroke="none">
<path d="M420 4742 l0 -87 38 -16 c37 -16 101 -37 178 -58 57 -15 53 -3 120
-336 2 -11 7 -33 9 -48 3 -16 15 -68 26 -115 11 -47 22 -102 25 -121 3 -20 7
-44 10 -53 3 -10 7 -28 9 -40 3 -13 21 -99 40 -193 20 -93 51 -244 70 -335 19
-91 57 -273 85 -405 28 -132 53 -252 55 -267 3 -16 12 -56 20 -90 8 -35 16
-74 18 -88 4 -20 49 -232 62 -290 2 -8 4 -18 4 -23 1 -4 11 -1 24 7 12 8 41
17 65 20 23 3 52 11 65 18 12 7 63 15 112 18 l90 5 17 35 c9 19 48 123 87 230
38 107 138 384 221 615 84 231 163 449 175 485 35 97 101 281 115 315 11 29
13 26 61 -100 27 -72 54 -143 59 -160 5 -16 14 -39 20 -50 5 -11 44 -110 86
-220 42 -110 91 -240 110 -290 20 -49 58 -148 85 -220 27 -71 54 -139 59 -150
5 -11 57 -146 115 -300 59 -154 109 -282 111 -284 2 -3 10 1 16 7 7 7 31 12
54 12 75 0 102 10 113 41 6 16 24 37 41 47 16 9 36 31 44 47 12 25 76 285 92
375 3 14 28 124 56 245 28 121 52 229 53 240 2 11 22 101 45 200 23 99 43 187
45 195 16 76 108 483 115 510 5 19 11 46 14 60 2 14 16 77 31 140 15 63 29
124 30 135 2 11 8 38 14 60 6 22 11 52 11 67 0 22 7 29 48 43 26 9 62 23 80
31 18 8 37 14 43 14 6 0 41 9 78 20 l66 21 0 84 0 85 -472 0 -473 0 0 -89 0
-89 47 -16 c26 -9 61 -16 80 -16 43 0 111 -28 123 -51 6 -9 20 -19 32 -21 20
-3 23 -9 22 -43 0 -22 -3 -51 -6 -65 -4 -14 -27 -117 -52 -230 -25 -113 -66
-295 -91 -405 -25 -110 -47 -209 -49 -220 -21 -107 -100 -442 -106 -448 -4 -4
-17 20 -30 55 -12 35 -28 77 -36 93 -7 17 -19 48 -27 70 -8 22 -79 204 -157
405 -78 201 -150 385 -160 410 -9 25 -70 184 -136 353 l-118 308 -125 -3 -124
-3 -57 -165 c-31 -91 -70 -205 -87 -255 -18 -49 -66 -189 -108 -310 -42 -121
-98 -283 -125 -360 -140 -406 -211 -609 -213 -612 -3 -2 -15 51 -62 257 -2 8
-9 38 -15 65 -6 28 -14 61 -16 75 -3 13 -14 60 -24 105 -10 45 -21 92 -24 105
-2 14 -23 108 -46 210 -23 102 -48 212 -56 245 -7 33 -20 92 -29 130 -9 39
-18 79 -20 90 -3 11 -7 31 -11 45 -14 65 -16 100 -5 100 6 0 16 11 21 25 7 19
17 25 41 25 18 0 51 11 74 24 25 15 61 26 88 27 l47 3 0 88 0 88 -525 0 -525
0 0 -88z"/>
<path d="M4025 4741 l0 -89 29 -6 c98 -20 163 -47 206 -87 l45 -42 0 -986 0
-986 -21 -20 c-42 -40 -70 -56 -124 -72 -30 -8 -73 -21 -95 -28 l-40 -12 0
-89 c-1 -49 1 -96 3 -104 3 -13 71 -15 555 -14 304 1 554 2 557 3 3 0 5 39 5
86 l0 86 -40 10 c-129 33 -149 41 -194 84 l-46 44 0 485 c0 267 2 486 5 486 3
0 14 -10 24 -22 23 -28 137 -159 151 -174 6 -6 37 -41 70 -79 33 -38 70 -80
83 -93 12 -14 40 -46 62 -72 22 -26 50 -58 62 -71 13 -14 48 -54 78 -88 30
-35 60 -69 66 -75 5 -6 59 -67 119 -136 60 -69 112 -127 115 -130 3 -3 34 -39
70 -80 36 -41 67 -77 70 -80 3 -3 20 -24 38 -47 18 -23 52 -55 77 -71 39 -26
54 -29 125 -31 77 -2 109 4 270 49 36 11 83 21 105 23 22 3 59 11 83 18 l42
14 0 87 0 88 -92 0 c-76 0 -99 4 -123 20 -16 11 -39 20 -50 20 -18 0 -120 100
-475 470 -93 97 -504 522 -527 546 -13 13 -23 26 -23 30 0 3 49 56 109 117 60
62 124 128 142 148 19 20 122 127 229 239 107 111 237 245 288 298 51 54 100
111 108 129 16 32 55 53 101 53 18 0 27 8 34 30 12 32 13 32 122 33 26 1 48 3
48 6 1 3 2 43 3 89 l1 82 -472 0 -473 0 0 -105 0 -105 55 0 c40 0 55 -4 55
-14 0 -7 9 -16 20 -19 29 -8 25 -22 -20 -67 -22 -22 -111 -125 -198 -228 -86
-103 -219 -261 -295 -352 -77 -91 -158 -187 -181 -215 -22 -27 -55 -64 -71
-83 l-30 -33 1 453 c1 249 2 458 3 464 2 25 108 84 186 104 44 12 82 23 84 26
3 2 5 43 6 89 l2 85 -562 0 -561 0 1 -89z"/>
</g>
</svg>
